HIERARCHY
ROOT Hips
{
	OFFSET 28.832817 438.721039 9.089394
	CHANNELS 6 Xposition Yposition Zposition Zrotation Xrotation Yrotation
	JOINT Chest
	{
		OFFSET -1.534996 78.524017 -11.631012
		CHANNELS 6 Xposition Yposition Zposition Zrotation Xrotation Yrotation
		JOINT Chest2
		{
			OFFSET 0.000000 33.432999 0.000000
			CHANNELS 6 Xposition Yposition Zposition Zrotation Xrotation Yrotation
			JOINT Neck
			{
				OFFSET 0.000000 77.854996 0.000038
				CHANNELS 6 Xposition Yposition Zposition Zrotation Xrotation Yrotation
				JOINT Head
				{
					OFFSET 0.000000 21.739006 0.000000
					CHANNELS 6 Xposition Yposition Zposition Zrotation Xrotation Yrotation
					End Site
					{
						OFFSET 0.000000 105.281982 0.000000
					}
				}
			}
			JOINT LeftCollar
			{
				OFFSET 26.763000 49.383011 16.524048
				CHANNELS 6 Xposition Yposition Zposition Zrotation Xrotation Yrotation
				JOINT LeftShoulder
				{
					OFFSET 42.989998 0.000000 0.000000
					CHANNELS 6 Xposition Yposition Zposition Zrotation Xrotation Yrotation
					JOINT LeftElbow
					{
						OFFSET 0.000000 -102.451019 -0.000038
						CHANNELS 6 Xposition Yposition Zposition Zrotation Xrotation Yrotation
						JOINT LeftWrist
						{
							OFFSET 0.000000 -127.033005 0.000038
							CHANNELS 6 Xposition Yposition Zposition Zrotation Xrotation Yrotation
							End Site
							{
								OFFSET 0.000000 -21.739006 -0.000038
							}
						}
					}
				}
			}
			JOINT RightCollar
			{
				OFFSET -25.345993 51.949997 16.864052
				CHANNELS 6 Xposition Yposition Zposition Zrotation Xrotation Yrotation
				JOINT RightShoulder
				{
					OFFSET -41.441002 0.000000 0.000000
					CHANNELS 6 Xposition Yposition Zposition Zrotation Xrotation Yrotation
					JOINT RightElbow
					{
						OFFSET 0.000000 -101.165009 -0.000038
						CHANNELS 6 Xposition Yposition Zposition Zrotation Xrotation Yrotation
						JOINT RightWrist
						{
							OFFSET 0.000000 -129.378021 0.000038
							CHANNELS 6 Xposition Yposition Zposition Zrotation Xrotation Yrotation
							End Site
							{
								OFFSET 0.000000 -21.739006 -0.000038
							}
						}
					}
				}
			}
		}
	}
	JOINT LeftHip
	{
		OFFSET 21.755981 -26.628990 -0.644951
		CHANNELS 6 Xposition Yposition Zposition Zrotation Xrotation Yrotation
		JOINT LeftKnee
		{
			OFFSET 0.000000 -185.857986 -0.000038
			CHANNELS 6 Xposition Yposition Zposition Zrotation Xrotation Yrotation
			JOINT LeftAnkle
			{
				OFFSET 0.000000 -189.794998 -0.000038
				CHANNELS 6 Xposition Yposition Zposition Zrotation Xrotation Yrotation
				End Site
				{
					OFFSET 0.000000 -0.000012 92.639999
				}
			}
		}
	}
	JOINT RightHip
	{
		OFFSET -20.923996 -25.811996 0.581055
		CHANNELS 6 Xposition Yposition Zposition Zrotation Xrotation Yrotation
		JOINT RightKnee
		{
			OFFSET 0.000000 -186.649994 -0.000038
			CHANNELS 6 Xposition Yposition Zposition Zrotation Xrotation Yrotation
			JOINT RightAnkle
			{
				OFFSET 0.000000 -185.666016 -0.000038
				CHANNELS 6 Xposition Yposition Zposition Zrotation Xrotation Yrotation
				End Site
				{
					OFFSET 0.000000 -0.000010 84.976006
				}
			}
		}
	}
}
MOTION
Frames: 6
Frame Time: 0.041667
-52.780640 216.300201 65.170143 4.217706 4.178967 5.323097 -1.534990 78.524010 -11.631001 -14.992757 1.691172 -6.361230 -0.000005 33.433044 0.000001 0.210931 -7.307023 5.831041 -0.000015 77.855034 0.000031 13.925466 9.830251 47.287736 -0.000005 21.738997 0.000004 -7.680996 -3.994874 7.022258 26.762985 49.383003 16.524036 -21.889757 4.042115 -0.245111 42.989964 -0.000027 -0.000004 121.964571 -3.625252 18.221869 0.000008 -102.451019 -0.000004 2.762416 -1.078384 70.454467 -0.000005 -127.033012 0.000073 1.713683 -3.810229 59.953270 -25.345993 51.950035 16.864054 -17.609862 6.495745 0.649286 -41.440945 -0.000049 -0.000008 -153.078937 -12.948623 -59.433185 0.000001 -101.164963 -0.000045 -7.065180 -24.119997 -73.614584 -0.000026 -129.378006 -0.000007 64.148030 -72.082941 -15.501205 21.755947 -26.628986 -0.644944 76.855461 -14.010333 -175.264894 -0.000012 -185.858017 -0.000049 15.865097 -7.994214 11.273575 -0.000008 -189.795059 -0.000061 -99.416538 -149.875988 18.030928 -20.923977 -25.812000 0.581070 80.913631 -172.627294 -8.177724 0.000046 -186.650070 -0.000058 47.397654 -158.366965 -15.118646 -0.000007 -185.666016 -0.000059 25.616141 -31.861002 -28.816640 
-57.373734 216.165390 65.390419 4.514661 4.335942 4.471137 -1.534995 78.524010 -11.631036 -15.124327 1.869217 -5.604148 -0.000001 33.432968 0.000020 0.164114 -7.525879 5.180158 0.000011 77.854988 0.000031 14.111703 9.365995 47.828680 -0.000004 21.739017 0.000006 -7.600555 -3.930607 7.036373 26.763018 49.382996 16.524042 -22.240692 3.489704 0.372389 42.989979 0.000005 0.000005 122.267995 -4.250133 17.643828 0.000011 -102.451057 -0.000056 2.524948 -0.924569 70.684617 -0.000011 -127.033020 0.000008 1.535760 -3.889660 60.144453 -25.345991 51.950001 16.864054 -17.645037 5.722748 0.531556 -41.440983 0.000034 -0.000010 -152.956281 -13.554306 -60.034248 0.000017 -101.164978 -0.000040 -6.927771 -23.882745 -73.594216 0.000023 -129.378006 0.000012 63.622529 -70.849901 -16.710906 21.755953 -26.628994 -0.644958 75.681727 -12.998872 -174.472169 0.000018 -185.857971 -0.000044 14.290701 -6.985555 7.100466 -0.000033 -189.795013 -0.000067 -101.760823 -150.856763 15.642101 -20.923981 -25.811958 0.581031 80.933159 -172.063831 -8.121730 0.000003 -186.650024 -0.000068 46.872935 -158.869066 -14.663620 0.000000 -185.666016 -0.000048 25.752523 -31.407628 -28.594568 
-62.270832 216.439529 65.432983 4.711928 4.455310 3.553754 -1.534997 78.524033 -11.630998 -15.359782 2.126593 -4.783617 -0.000007 33.433014 0.000011 0.119661 -7.713357 4.552948 0.000019 77.854980 0.000048 14.370284 8.923647 48.245533 -0.000005 21.738939 -0.000000 -7.556197 -3.930160 7.065517 26.763021 49.383064 16.524050 -22.295769 2.761614 1.303594 42.989967 -0.000030 -0.000002 122.385447 -5.371508 17.463699 -0.000032 -102.451027 -0.000029 2.395006 -0.843700 70.675758 -0.000001 -127.033012 0.000035 1.500223 -3.936385 60.266700 -25.345974 51.950043 16.864054 -16.958680 4.829266 0.285062 -41.441017 -0.000009 -0.000011 -153.363729 -14.333084 -60.308767 0.000012 -101.164948 -0.000066 -6.885762 -23.563596 -73.813328 0.000005 -129.378036 0.000037 64.148542 -70.434448 -16.326927 21.755959 -26.628998 -0.644934 74.687750 -11.960860 -173.617521 0.000015 -185.857986 -0.000038 13.025506 -6.034155 3.304201 -0.000022 -189.795059 -0.000033 -105.218975 -151.515302 11.741261 -20.923958 -25.811977 0.581066 81.215942 -171.288386 -7.876975 0.000049 -186.650085 -0.000076 46.378238 -159.525461 -14.855439 -0.000022 -185.666031 -0.000070 25.602938 -29.791345 -27.957667 
-67.338112 217.192780 65.683281 4.998769 4.277261 2.617877 -1.534989 78.523964 -11.631016 -15.954308 2.636026 -3.887661 -0.000001 33.433071 0.000009 0.083935 -7.858643 3.793167 -0.000015 77.855011 0.000044 14.748385 8.748487 48.717236 0.000001 21.739006 0.000001 -7.708876 -3.820811 7.020646 26.762980 49.382954 16.524040 -22.192857 1.900650 2.681992 42.990036 -0.000031 -0.000006 122.500508 -6.839471 17.324532 -0.000021 -102.451004 -0.000022 2.292526 -0.742294 70.561182 0.000001 -127.032967 0.000038 1.726737 -3.909377 60.633857 -25.345993 51.949978 16.864056 -16.171135 3.861667 0.040137 -41.441025 -0.000049 -0.000011 -153.639450 -15.235953 -60.474058 0.000004 -101.164894 -0.000028 -6.813537 -23.440777 -73.830418 0.000010 -129.377960 0.000016 64.423751 -70.599390 -15.960914 21.755997 -26.629045 -0.644946 73.522280 -10.657917 -172.782271 -0.000008 -185.857986 -0.000039 11.931927 -5.065201 -0.464701 -0.000023 -189.795044 -0.000061 -108.884875 -152.633896 8.309787 -20.923975 -25.812019 0.581062 81.625644 -170.605339 -7.222686 0.000027 -186.650070 -0.000064 46.028805 -160.035212 -15.398441 -0.000010 -185.666031 -0.000054 25.799721 -27.436107 -26.416894 
-72.363708 218.182663 66.277100 5.324045 3.940596 1.502239 -1.535002 78.524033 -11.631029 -16.642859 3.003946 -2.770700 -0.000012 33.433044 0.000005 0.054661 -7.918770 2.807825 0.000004 77.855064 0.000031 15.099964 8.911305 49.327940 0.000016 21.739014 -0.000004 -8.000247 -3.632670 6.883457 26.762991 49.383018 16.524050 -22.219225 1.203322 3.781566 42.990017 0.000007 -0.000012 122.681754 -7.725869 17.027433 0.000015 -102.451035 -0.000035 2.147817 -0.625641 70.894386 -0.000013 -127.033012 0.000063 1.531356 -3.723394 60.755994 -25.345985 51.949982 16.864056 -15.390071 5.971123 -0.764406 -41.441021 0.000004 0.000013 -154.412791 -13.773660 -62.187158 0.000002 -101.165001 -0.000048 -6.846825 -23.585596 -73.745464 0.000011 -129.378067 0.000001 63.459383 -70.393944 -16.869191 21.755974 -26.628986 -0.644965 72.287881 -8.945202 -171.505954 0.000016 -185.858002 -0.000038 10.895300 -4.117342 -4.179589 -0.000029 -189.795074 -0.000054 -111.265824 -153.820682 6.800930 -20.923977 -25.811998 0.581043 82.181157 -170.086436 -6.456638 0.000016 -186.650055 -0.000056 45.949155 -160.230364 -15.337692 -0.000010 -185.665985 -0.000055 27.046929 -25.963339 -24.283954 
-77.098854 219.066940 66.879837 5.739268 3.775304 -0.030398 -1.534986 78.524033 -11.631004 -17.292179 3.108015 -1.302023 -0.000015 33.432976 0.000001 0.014622 -8.057764 1.741708 -0.000020 77.855011 0.000056 15.390216 8.868566 49.982826 -0.000006 21.739021 -0.000002 -7.589005 -3.307696 6.895420 26.762981 49.383003 16.524063 -22.209175 0.554834 4.749860 42.990017 -0.000075 -0.000013 122.677574 -8.335705 16.569341 0.000018 -102.451019 -0.000041 2.013653 -0.503427 71.058802 0.000007 -127.033005 0.000015 1.337946 -3.820527 61.074015 -25.345991 51.949966 16.864056 -15.045428 5.947074 -0.860978 -41.441002 -0.000077 -0.000013 -154.442298 -13.865728 -61.870811 0.000005 -101.164970 -0.000075 -7.085427 -23.909818 -73.987068 -0.000005 -129.378021 -0.000052 62.371785 -69.956109 -18.030267 21.756004 -26.629009 -0.644950 71.187865 -6.953564 -169.652159 0.000014 -185.857986 -0.000054 10.182665 -3.271436 -7.666770 -0.000032 -189.795044 -0.000054 -113.628523 -154.334845 7.307947 -20.923960 -25.811937 0.581057 82.592635 -169.079024 -3.625038 0.000002 -186.650070 -0.000073 46.457885 -162.194030 -13.280557 -0.000020 -185.666016 -0.000054 30.180991 -26.370799 -21.599208 
